<svg width="176" height="176" viewBox="0 0 176 176" fill="none" xmlns="http://www.w3.org/2000/svg">
<circle cx="88.1745" cy="87.7995" r="87.7995" fill="white"/>
<path d="M139.234 57.0469C139.234 67.115 139.234 77.1832 139.234 87.2514C138.291 87.1364 130.587 91.4201 127.51 93.1163C122.675 94.8815 117.712 95.8993 112.532 95.5255C103.24 94.847 94.7241 89.8446 92.0273 81.3864C92.8553 80.9552 93.0278 80.4492 93.8846 80.0179C96.8975 78.5057 101.526 77.3039 104.976 75.7457C105.982 80.1559 107.972 80.9322 111.934 81.5647C114.084 81.9097 116.292 81.9097 118.466 81.4612C124.193 80.2767 125.136 78.2527 125.251 72.3705C125.308 69.3748 125.302 66.3733 125.32 63.3718C126.7 63.1361 129.132 62.3426 130.334 61.7101C133.295 60.1461 136.003 58.0991 139.234 57.0469Z" fill="#3B3EDE"/>
<path d="M125.251 93.8717C128.333 92.1754 138.286 87.1327 139.229 87.242C139.499 94.3662 139.563 101.502 137.579 108.425C133.531 122.564 123.572 128.647 109.83 132.437C103.154 134.277 96.3115 135.047 89.3713 134.018C87.4451 133.736 85.5533 133.316 85.2198 131.039C84.8748 128.688 85.3693 127.141 87.1633 126.451C90.4523 125.186 94.0058 125.284 97.3982 124.536C106.242 122.587 114.435 119.355 120.473 112.191C124.089 107.902 124.584 103.75 125.096 99.2306C125.228 97.1606 125.234 96.1429 125.251 93.8717Z" fill="#2A31BA"/>
<path d="M104.972 75.7465C103.787 76.517 92.2588 81.2665 92.0288 81.3872C90.4993 73.8663 90.4936 62.1134 90.5108 54.8224C90.5166 51.3667 92.7878 48.6125 95.7663 48.2905C99.8602 47.8477 102.982 49.6072 103.925 53.4769C104.316 55.0869 104.236 56.6912 104.242 58.3011C104.253 60.8081 104.489 64.4018 104.569 67.4148C104.684 71.7388 104.972 75.7465 104.972 75.7465Z" fill="#5860F9"/>
<path d="M139.246 57.0499C136.014 58.1078 133.306 60.1491 130.345 61.7188C129.149 62.3513 126.711 63.1448 125.331 63.3805C125.314 58.5161 125.245 53.6516 125.296 48.7872C125.337 45.0095 129.402 42.3875 133.122 42.4392C136.767 42.491 139.269 45.0382 139.297 48.7872C139.315 51.5357 139.269 54.2899 139.246 57.0499Z" fill="#5860F9"/>
<path d="M38.2447 79.8473C35.6975 70.5841 36.721 61.8614 42.6607 54.1335C47.5596 47.7568 54.3273 44.8991 62.314 44.8301C64.361 44.8128 66.408 44.8761 68.4549 44.8991C68.6217 46.2561 67.4889 46.8368 66.8105 47.7108C65.143 49.8383 62.3715 51.0228 61.555 53.8748C57.7715 54.4555 54.0513 55.1915 51.1878 58.055C49.8999 58.837 49.0719 60.0502 48.2669 61.2634C45.6046 65.2884 45.5471 69.8194 45.7311 74.3963C44.4719 74.2066 43.8624 75.1668 43.0517 75.8338C41.4359 77.1506 40.4814 79.2723 38.2447 79.8473Z" fill="#3B3EDE"/>
<path d="M38.2461 79.8425C40.4828 79.2675 41.4316 77.1515 43.0473 75.829C43.858 75.162 44.4733 74.2018 45.7268 74.3915C45.8763 74.5353 46.0315 74.6733 46.181 74.817C46.7905 82.775 52.9027 88.4617 61.1136 88.7089C62.9019 88.7607 64.6959 88.8009 66.4841 88.8412C66.5876 90.2902 65.3341 90.8709 64.5981 91.7794C63.0514 93.6826 60.5444 94.8384 60.0442 97.5638C49.838 97.7708 39.8273 89.6347 38.2461 79.8425Z" fill="#3B3EDE"/>
<path d="M60.0469 97.5712C60.5471 94.8457 63.0483 93.69 64.6008 91.7868C65.3426 90.8783 66.5903 90.2975 66.4868 88.8485C72.6278 88.8083 78.7687 88.7623 84.9097 88.7393C86.5254 88.7335 87.9399 89.3315 89.1934 90.3378C89.8661 91.8788 89.6131 93.5175 89.6994 95.1217C89.1416 96.9387 87.8594 97.6862 86.0137 97.6747C77.3542 97.6345 68.7006 97.6057 60.0469 97.5712Z" fill="#2A31BA"/>
<path d="M46.1926 74.8186C46.0431 74.6749 45.8878 74.5369 45.7383 74.3931C45.5543 69.8162 45.6118 65.2852 48.2741 61.2602C49.0791 60.0412 49.9013 58.8338 51.1951 58.0518C52.8855 58.2818 54.599 57.9885 56.2838 58.5693C59.5785 59.6962 61.0792 62.1572 60.349 65.5784C59.3255 70.3854 55.4443 73.6399 49.8381 74.3816C48.6248 74.5426 47.4058 74.6749 46.1926 74.8186Z" fill="#2A31BA"/>
<path d="M61.5508 53.875C62.3673 51.0288 65.133 49.8386 66.8062 47.7111C67.4905 46.8428 68.6175 46.2563 68.4507 44.8993C71.6477 44.8763 74.8389 44.8016 78.0359 44.8361C80.6291 44.8648 82.5323 46.5783 82.7393 48.9128C82.9751 51.5635 81.5319 53.461 78.7086 53.76C72.9989 54.3753 67.272 54.1798 61.5508 53.875Z" fill="#5860F9"/>
<path d="M75.2325 59.62C77.659 59.6487 79.6082 61.6094 79.5737 63.9842C79.5392 66.3934 77.5727 68.3426 75.1808 68.3426C72.76 68.3369 70.92 66.4337 70.9258 63.9439C70.9373 61.4369 72.7715 59.5912 75.2325 59.62Z" fill="#2A31BA"/>
</svg>
