<svg width="685" height="261" viewBox="0 0 685 261" fill="none" xmlns="http://www.w3.org/2000/svg">
<path d="M258.622 67.9986C262.228 58.971 267.409 51.5899 274.279 45.5573C290.503 31.3062 308.941 21.8811 331.07 22.2076C348.189 22.4631 362.454 29.3331 373 43.1017C375.555 46.4232 377.415 50.1563 378.323 54.6275C383.618 46.6787 391.212 44.3792 399.913 44.5779C408.061 44.7624 413.341 48.3394 416.024 56.0186C420.168 67.8709 424.029 79.8083 428.004 91.7174C431.041 100.816 434.065 109.929 437.102 119.027C437.301 119.624 437.386 120.276 438.153 120.972C438.55 117.821 438.947 114.911 439.288 112.001C441.219 95.4647 443.121 78.9141 445.094 62.3776C445.491 59.0136 446.002 55.6637 446.754 52.3564C448.387 45.1599 452.815 40.859 460.04 39.5389C465.874 38.4601 471.751 37.7646 477.712 38.5027C482.382 39.0705 486.03 41.1712 488.557 45.1741C491.126 49.2478 492.588 53.79 494.05 58.318C499.884 76.3023 505.689 94.2866 511.495 112.271C511.708 112.938 511.992 113.591 512.73 114.272C513.156 111.22 513.624 108.183 514.021 105.131C515.867 90.9793 517.698 76.8133 519.529 62.6615C520.097 58.2329 520.721 53.8042 521.232 49.3614C522.723 36.7426 529.976 33.0663 539.997 32.2288C548.343 31.5333 555.469 33.9747 560.096 41.4977C562.807 45.898 563.049 50.795 562.438 55.7489C561.218 65.5856 558.294 75.0532 556.108 84.677C552.176 101.98 548.088 119.24 544 136.501C543.233 139.737 542.141 142.86 540.579 145.826C538.308 150.17 534.845 153.108 530.075 154.215C522.07 156.06 513.95 156.884 505.76 155.933C498.72 155.124 493.88 151.107 490.629 144.96C487.364 138.786 485.775 132.001 483.646 125.429C479.969 114.031 476.421 102.604 472.801 91.178C472.616 90.5818 472.361 89.9857 471.765 89.3895C471.41 91.76 471.027 94.1304 470.7 96.5151C468.784 110.951 466.882 125.386 464.966 139.822C464.54 143.058 463.702 146.181 462.496 149.219C459.969 155.62 455.243 159.538 448.628 161.17C441.857 162.831 434.959 163.442 427.989 163.385C421.474 163.328 416.492 160.588 412.943 155.095C409.04 149.034 406.613 142.306 403.774 135.748C399.672 126.281 395.697 116.756 391.638 107.26C391.283 106.423 391.098 105.472 390.218 104.734C388.827 106.877 387.592 109.035 386.116 111.036C379.913 119.396 371.908 125.784 363.334 131.504C353.554 138.005 343.462 143.91 332.05 147.161C317.16 151.405 302.611 151.149 288.771 143.427C278.012 137.437 270.432 128.367 264.442 117.835C263.846 116.785 263.278 115.706 262.497 114.272C261.731 116.998 261.731 119.411 261.504 121.781C260.539 131.831 259.63 141.894 258.793 151.944C257.657 165.443 247.579 173.477 234.023 171.774C229.055 171.149 224.357 170.013 220.354 166.848C215.67 163.143 213.598 158.09 213.3 152.313C212.973 145.798 214.208 139.368 214.705 132.909C215.386 124.137 216.281 115.394 217.118 106.636C217.444 103.115 217.785 99.6236 217.189 96.0751C215.883 88.3959 211.667 84.2795 203.477 82.9453C196.494 81.7955 190.305 84.8473 186.941 91.0644C184.485 95.6208 183.747 100.603 183.293 105.656C182.1 118.8 181.036 131.958 179.702 145.088C178.949 152.54 175.983 158.857 168.9 162.519C160.795 166.706 144.187 165.486 137.857 156.089C134.521 151.135 133.854 145.67 134.379 139.921C135.628 126.125 136.891 112.342 138.169 98.5449C139.56 83.6124 140.979 68.6799 142.37 53.7475C143.407 42.6191 144.471 31.4907 145.436 20.3481C146.728 5.5292 156.693 -1.35507 170.915 0.220504C176.976 0.887639 182.498 2.83227 186.529 7.71513C190.39 12.3993 191.384 17.9777 190.901 23.8115C190.021 34.6702 188.956 45.5005 187.963 56.345C187.75 58.6161 187.523 60.873 187.31 63.1157C188.062 63.3286 188.261 62.8602 188.516 62.5622C198.452 50.9086 211.185 46.9767 226.089 49.0491C235.102 50.2982 243.576 52.9242 250.759 58.8006C253.825 61.2705 256.294 64.2655 258.622 67.9986ZM375.896 64.6203C373.114 68.027 369.878 70.3974 366.372 72.3847C348.785 82.3491 331.198 92.2993 313.583 102.221C309.154 104.719 309.126 104.677 312.476 108.609C319.686 117.083 329.892 119.382 340.07 114.84C345.861 112.257 350.247 108.041 353.71 102.86C356.79 98.2468 359.516 93.3781 362.752 88.8785C366.854 83.1724 371.865 78.7295 379.998 80.0922C378.11 75.0106 376.365 70.1561 375.896 64.6203ZM318.196 51.9022C315.144 51.7744 312.277 52.5693 309.552 53.7333C297.742 58.7439 291.255 69.5032 297.401 82.9595C298.139 84.5776 298.75 84.5492 300.098 83.7685C305.478 80.66 310.914 77.6366 316.322 74.5848C322.17 71.2775 328.033 67.9844 333.867 64.6629C334.633 64.2229 335.726 63.9816 334.874 62.6189C330.985 56.4586 325.96 52.0725 318.196 51.9022Z" fill="#3B3EDE"/>
<path d="M684.024 68.9077C684.024 93.762 684.024 118.616 684.024 143.471C681.696 143.187 662.676 153.762 655.082 157.949C643.144 162.307 630.895 164.819 618.105 163.896C595.167 162.221 574.145 149.872 567.488 128.992C569.532 127.928 569.958 126.679 572.073 125.614C579.511 121.881 590.937 118.914 599.454 115.068C601.938 125.955 606.849 127.871 616.629 129.432C621.938 130.284 627.388 130.284 632.754 129.177C646.892 126.253 649.219 121.257 649.503 106.736C649.645 99.3404 649.631 91.931 649.674 84.5215C653.08 83.9395 659.085 81.9807 662.051 80.4193C669.361 76.5585 676.047 71.5053 684.024 68.9077Z" fill="#3B3EDE"/>
<path d="M649.508 159.822C657.116 155.634 681.687 143.186 684.015 143.455C684.682 161.042 684.838 178.658 679.941 195.748C669.948 230.651 645.363 245.669 611.439 255.023C594.959 259.565 578.068 261.467 560.935 258.927C556.18 258.231 551.51 257.195 550.687 251.574C549.835 245.768 551.056 241.95 555.485 240.247C563.604 237.124 572.376 237.365 580.751 235.52C602.582 230.708 622.809 222.731 637.713 205.045C646.641 194.456 647.862 184.208 649.125 173.051C649.451 167.941 649.466 165.428 649.508 159.822Z" fill="#2A31BA"/>
<path d="M599.433 115.054C596.509 116.956 568.049 128.681 567.481 128.979C563.706 110.412 563.691 81.3991 563.734 63.4007C563.748 54.8699 569.355 48.0708 576.708 47.2759C586.814 46.1829 594.522 50.5264 596.849 60.0792C597.815 64.0536 597.616 68.0138 597.63 71.9883C597.659 78.177 598.241 87.0485 598.439 94.4863C598.723 105.16 599.433 115.054 599.433 115.054Z" fill="#5860F9"/>
<path d="M684.013 68.9067C676.036 71.5184 669.351 76.5574 662.041 80.4325C659.088 81.9939 653.07 83.9527 649.663 84.5347C649.621 72.5262 649.45 60.5178 649.578 48.5094C649.677 39.1837 659.713 32.711 668.896 32.8388C677.896 32.9665 684.07 39.2546 684.141 48.5094C684.184 55.2943 684.07 62.0934 684.013 68.9067Z" fill="#5860F9"/>
<path d="M3.22699 123.984C-3.06111 101.117 -0.534518 79.5837 14.1283 60.5065C26.2219 44.7649 42.9286 37.7103 62.6446 37.54C67.6978 37.4974 72.751 37.6535 77.8042 37.7103C78.2158 41.0602 75.4195 42.4938 73.7446 44.6514C69.6282 49.9033 62.7865 52.8273 60.7709 59.8677C51.431 61.3013 42.2473 63.1182 35.1785 70.187C31.999 72.1175 29.955 75.1125 27.9678 78.1075C21.3958 88.0435 21.2538 99.2287 21.708 110.527C18.5995 110.059 17.0949 112.429 15.0935 114.076C11.1049 117.327 8.7486 122.564 3.22699 123.984Z" fill="#3B3EDE"/>
<path d="M3.21484 123.984C8.73645 122.565 11.0785 117.341 15.0671 114.077C17.0685 112.43 18.5873 110.059 21.6817 110.528C22.0508 110.883 22.434 111.223 22.8031 111.578C24.3077 131.223 39.3963 145.262 59.6658 145.872C64.0803 146 68.5089 146.099 72.9234 146.198C73.1789 149.775 70.0845 151.209 68.2676 153.452C64.4493 158.15 58.2606 161.003 57.0257 167.731C31.8307 168.242 7.11829 148.157 3.21484 123.984Z" fill="#3B3EDE"/>
<path d="M57.0664 167.734C58.3013 161.006 64.4759 158.153 68.3083 153.455C70.1394 151.212 73.2196 149.778 72.9641 146.201C88.1237 146.102 103.283 145.989 118.443 145.932C122.431 145.918 125.923 147.394 129.018 149.878C130.678 153.682 130.054 157.727 130.267 161.687C128.89 166.173 125.725 168.018 121.168 167.99C99.7914 167.89 78.4289 167.819 57.0664 167.734Z" fill="#2A31BA"/>
<path d="M22.8344 111.564C22.4653 111.209 22.0821 110.868 21.713 110.513C21.2588 99.2145 21.4008 88.0294 27.9728 78.0933C29.96 75.0841 31.9898 72.1033 35.1835 70.1729C39.3566 70.7406 43.5866 70.0167 47.7455 71.4503C55.8789 74.2324 59.5836 80.3076 57.7809 88.7533C55.2543 100.62 45.6731 108.654 31.8336 110.485C28.8386 110.882 25.8294 111.209 22.8344 111.564Z" fill="#2A31BA"/>
<path d="M60.7695 59.8684C62.7851 52.8421 69.6126 49.9039 73.7432 44.652C75.4323 42.5086 78.2144 41.0608 77.8028 37.711C85.6948 37.6542 93.5727 37.4696 101.465 37.5548C107.866 37.6258 112.565 41.8557 113.076 47.6186C113.658 54.1622 110.095 58.8464 103.126 59.5845C89.0305 61.1033 74.8929 60.6207 60.7695 59.8684Z" fill="#5860F9"/>
<path d="M94.4871 74.0477C100.477 74.1187 105.289 78.9589 105.204 84.8212C105.119 90.7687 100.264 95.5805 94.3593 95.5805C88.3835 95.5663 83.8413 90.868 83.8555 84.7219C83.8839 78.5331 88.4119 73.9767 94.4871 74.0477Z" fill="#2A31BA"/>
</svg>
